<svg width="40" height="40" viewBox="0 0 40 40" fill="none" xmlns="http://www.w3.org/2000/svg">
<g clip-path="url(#clip0_256_128)">
<path d="M12.7466 10.1401C12.7462 10.8399 12.4695 11.5109 11.9773 12.0055C11.4851 12.5002 10.8177 12.7778 10.122 12.7775C9.42624 12.7771 8.75914 12.4988 8.26742 12.0037C7.7757 11.5086 7.49965 10.8373 7.5 10.1374C7.50035 9.43759 7.77706 8.76655 8.26927 8.27194C8.76148 7.77732 9.42887 7.49965 10.1246 7.5C10.8203 7.50035 11.4875 7.7787 11.9792 8.2738C12.4709 8.76891 12.7469 9.44022 12.7466 10.1401ZM12.8253 14.7315H7.5787V31.25H12.8253V14.7315ZM21.1149 14.7315H15.8945V31.25H21.0624V22.5817C21.0624 17.7528 27.319 17.3042 27.319 22.5817V31.25H32.5V20.7874C32.5 12.6469 23.2398 12.9503 21.0624 16.948L21.1149 14.7315Z" fill="white"/>
</g>
<defs>
<clipPath id="clip0_256_128">
<rect width="40" height="40" fill="white"/>
</clipPath>
</defs>
</svg>
