<svg width="65" height="64" viewBox="0 0 65 64" fill="none" xmlns="http://www.w3.org/2000/svg">
<path d="M63.5 47.776V40.223L59.771 39.268C59.479 38.323 59.102 37.41 58.646 36.543L60.606 33.234L55.266 27.893L51.956 29.854C51.09 29.397 50.177 29.02 49.232 28.728L48.276 25H40.723L39.768 28.729C38.823 29.021 37.91 29.398 37.044 29.855L33.734 27.894L33.5 28.13V25H30.5C29.657 25 28.847 24.642 28.279 24.017C27.703 23.384 27.432 22.563 27.514 21.703C27.659 20.188 29.046 19 30.672 19H33.5V10C33.5 8.34601 32.154 7.00001 30.5 7.00001H22.5V6.17201C22.5 3.52601 20.518 1.26501 17.988 1.02401C16.58 0.886006 15.177 1.35401 14.137 2.30001C13.097 3.24501 12.5 4.59501 12.5 6.00001V7.00001H4.5C2.846 7.00001 1.5 8.34601 1.5 10V19H4.328C5.954 19 7.341 20.188 7.486 21.702C7.568 22.562 7.297 23.384 6.721 24.016C6.153 24.642 5.343 25 4.5 25H1.5V34C1.5 35.654 2.846 37 4.5 37H14.5V34.172C14.5 32.546 15.687 31.158 17.202 31.014C18.064 30.941 18.885 31.204 19.517 31.78C20.142 32.347 20.5 33.156 20.5 34V37H30.141C29.785 37.731 29.471 38.485 29.229 39.269L25.5 40.224V47.777L29.229 48.732C29.521 49.677 29.898 50.59 30.354 51.457L28.394 54.766L33.734 60.107L37.044 58.146C37.91 58.603 38.823 58.98 39.768 59.272L40.724 63H48.277L49.232 59.271C50.177 58.979 51.09 58.602 51.956 58.145L55.266 60.106L60.606 54.765L58.646 51.456C59.103 50.59 59.479 49.677 59.771 48.731L63.5 47.776ZM20.863 30.3C19.823 29.354 18.417 28.883 17.012 29.024C14.482 29.265 12.5 31.526 12.5 34.172V35H4.5C3.949 35 3.5 34.552 3.5 34V27H4.5C5.906 27 7.254 26.403 8.201 25.362C9.146 24.322 9.612 22.919 9.477 21.512C9.235 18.982 6.974 17 4.328 17H3.5V10C3.5 9.44801 3.949 9.00001 4.5 9.00001H14.5V6.00001C14.5 5.15601 14.858 4.34701 15.483 3.77901C16.116 3.20401 16.935 2.93701 17.798 3.01301C19.313 3.15801 20.5 4.54601 20.5 6.17201V9.00001H30.5C31.051 9.00001 31.5 9.44801 31.5 10V17H30.672C28.026 17 25.765 18.982 25.523 21.513C25.389 22.919 25.854 24.323 26.799 25.363C27.746 26.403 29.094 27 30.5 27H31.5V30.13L28.395 33.235L29.44 35H22.5V34C22.5 32.595 21.903 31.245 20.863 30.3ZM58.155 47.08L58.003 47.644C57.687 48.818 57.224 49.938 56.627 50.973L56.335 51.48L58.093 54.448L54.948 57.594L51.98 55.835L51.474 56.127C50.438 56.724 49.317 57.187 48.143 57.503L47.579 57.655L46.724 61H42.277L41.421 57.655L40.857 57.503C39.683 57.187 38.563 56.724 37.526 56.127L37.02 55.835L34.052 57.594L30.907 54.448L32.665 51.48L32.373 50.973C31.776 49.938 31.313 48.818 30.997 47.644L30.845 47.08L27.5 46.224V41.777L30.845 40.921L30.997 40.357C31.313 39.183 31.776 38.063 32.373 37.028L32.665 36.521L30.907 33.553L34.052 30.407L37.02 32.166L37.526 31.874C38.562 31.277 39.683 30.814 40.857 30.498L41.421 30.346L42.276 27H46.723L47.579 30.345L48.143 30.497C49.317 30.813 50.437 31.276 51.474 31.873L51.98 32.165L54.948 30.406L58.093 33.552L56.335 36.52L56.627 37.027C57.224 38.062 57.687 39.182 58.003 40.356L58.155 40.92L61.5 41.776V46.223L58.155 47.08Z" fill="#10A8FC"/>
<path d="M44.5 36C40.089 36 36.5 39.589 36.5 44C36.5 48.411 40.089 52 44.5 52C46.24 52 47.9 51.443 49.3 50.39L48.098 48.792C47.047 49.582 45.803 50 44.5 50C41.191 50 38.5 47.309 38.5 44C38.5 40.691 41.191 38 44.5 38C47.809 38 50.5 40.691 50.5 44C50.5 45.303 50.083 46.547 49.292 47.599L50.891 48.8C51.943 47.399 52.5 45.74 52.5 44C52.5 39.589 48.911 36 44.5 36Z" fill="#10A8FC"/>
<path d="M44.5 32C37.883 32 32.5 37.383 32.5 44C32.5 50.617 37.883 56 44.5 56C51.117 56 56.5 50.617 56.5 44C56.5 37.383 51.117 32 44.5 32ZM44.5 54C38.986 54 34.5 49.514 34.5 44C34.5 38.486 38.986 34 44.5 34C50.014 34 54.5 38.486 54.5 44C54.5 49.514 50.014 54 44.5 54Z" fill="#10A8FC"/>
<path d="M54.5 7H52.5V9H54.5V7Z" fill="#10A8FC"/>
<path d="M54.5 11H52.5V13H54.5V11Z" fill="#10A8FC"/>
<path d="M56.5 9H54.5V11H56.5V9Z" fill="#10A8FC"/>
<path d="M52.5 9H50.5V11H52.5V9Z" fill="#10A8FC"/>
<path d="M44.5 15H42.5V17H44.5V15Z" fill="#10A8FC"/>
<path d="M44.5 19H42.5V21H44.5V19Z" fill="#10A8FC"/>
<path d="M46.5 17H44.5V19H46.5V17Z" fill="#10A8FC"/>
<path d="M42.5 17H40.5V19H42.5V17Z" fill="#10A8FC"/>
<path d="M58.5 19H56.5V21H58.5V19Z" fill="#10A8FC"/>
<path d="M58.5 23H56.5V25H58.5V23Z" fill="#10A8FC"/>
<path d="M60.5 21H58.5V23H60.5V21Z" fill="#10A8FC"/>
<path d="M56.5 21H54.5V23H56.5V21Z" fill="#10A8FC"/>
<path d="M39.5 3H37.5V5H39.5V3Z" fill="#10A8FC"/>
<path d="M39.5 7H37.5V9H39.5V7Z" fill="#10A8FC"/>
<path d="M41.5 5H39.5V7H41.5V5Z" fill="#10A8FC"/>
<path d="M37.5 5H35.5V7H37.5V5Z" fill="#10A8FC"/>
<path d="M20.5 47H18.5V49H20.5V47Z" fill="#10A8FC"/>
<path d="M20.5 51H18.5V53H20.5V51Z" fill="#10A8FC"/>
<path d="M22.5 49H20.5V51H22.5V49Z" fill="#10A8FC"/>
<path d="M18.5 49H16.5V51H18.5V49Z" fill="#10A8FC"/>
<path d="M10.5 41H8.5V43H10.5V41Z" fill="#10A8FC"/>
<path d="M10.5 45H8.5V47H10.5V45Z" fill="#10A8FC"/>
<path d="M12.5 43H10.5V45H12.5V43Z" fill="#10A8FC"/>
<path d="M8.5 43H6.5V45H8.5V43Z" fill="#10A8FC"/>
</svg>
