<svg width="40" height="40" viewBox="0 0 40 40" fill="none" xmlns="http://www.w3.org/2000/svg">
<g clip-path="url(#clip0_256_118)">
<path d="M20.2497 23.5302C22.0612 23.5302 23.5297 22.0617 23.5297 20.2502C23.5297 18.4387 22.0612 16.9702 20.2497 16.9702C18.4382 16.9702 16.9697 18.4387 16.9697 20.2502C16.9697 22.0617 18.4382 23.5302 20.2497 23.5302Z" fill="white"/>
<path d="M24.762 10H15.742C14.2196 10 12.7596 10.6047 11.6832 11.6812C10.6067 12.7577 10.002 14.2177 10.002 15.74V24.76C10.002 26.2823 10.6067 27.7423 11.6832 28.8188C12.7596 29.8953 14.2196 30.5 15.742 30.5H24.762C26.2843 30.5 27.7443 29.8953 28.8207 28.8188C29.8972 27.7423 30.502 26.2823 30.502 24.76V15.74C30.502 14.2177 29.8972 12.7577 28.8207 11.6812C27.7443 10.6047 26.2843 10 24.762 10ZM20.252 25.17C19.2789 25.17 18.3276 24.8814 17.5185 24.3408C16.7095 23.8002 16.0788 23.0318 15.7065 22.1328C15.3341 21.2338 15.2367 20.2445 15.4265 19.2902C15.6163 18.3358 16.0849 17.4591 16.773 16.771C17.4611 16.083 18.3377 15.6144 19.2921 15.4245C20.2465 15.2347 21.2357 15.3321 22.1348 15.7045C23.0338 16.0769 23.8022 16.7075 24.3428 17.5166C24.8834 18.3257 25.172 19.2769 25.172 20.25C25.172 21.5549 24.6536 22.8063 23.7309 23.729C22.8082 24.6516 21.5568 25.17 20.252 25.17ZM25.582 16.15C25.3387 16.15 25.1009 16.0779 24.8986 15.9427C24.6963 15.8076 24.5387 15.6155 24.4456 15.3907C24.3525 15.1659 24.3281 14.9186 24.3756 14.68C24.423 14.4414 24.5402 14.2223 24.7122 14.0503C24.8842 13.8782 25.1034 13.7611 25.342 13.7136C25.5806 13.6662 25.8279 13.6905 26.0527 13.7836C26.2774 13.8767 26.4695 14.0344 26.6047 14.2366C26.7398 14.4389 26.812 14.6767 26.812 14.92C26.812 15.2462 26.6824 15.5591 26.4517 15.7897C26.221 16.0204 25.9082 16.15 25.582 16.15Z" fill="white"/>
</g>
<defs>
<clipPath id="clip0_256_118">
<rect width="32" height="32" fill="white" transform="translate(4 4)"/>
</clipPath>
</defs>
</svg>
