<svg width="40" height="40" viewBox="0 0 40 40" fill="none" xmlns="http://www.w3.org/2000/svg">
<path d="M33.1676 12.86C32.1941 13.2928 31.1464 13.5847 30.0471 13.7153C31.1695 13.0433 32.0301 11.979 32.436 10.7092C31.3861 11.3323 30.2239 11.7844 28.9859 12.0284C27.9952 10.9726 26.583 10.3125 25.0203 10.3125C22.0201 10.3125 19.5877 12.745 19.5877 15.7457C19.5877 16.1709 19.6355 16.5853 19.7285 16.9837C15.2129 16.7568 11.2092 14.5942 8.5294 11.307C8.06171 12.109 7.79401 13.0423 7.79401 14.0389C7.79401 15.9236 8.75302 17.5868 10.2109 18.5609C9.32069 18.5324 8.48263 18.2878 7.74993 17.8809C7.74939 17.9035 7.74939 17.9266 7.74939 17.9497C7.74939 20.5816 9.62227 22.777 12.108 23.277C11.6521 23.4006 11.1721 23.4673 10.6764 23.4673C10.3259 23.4673 9.98566 23.4334 9.65398 23.3694C10.3458 25.5277 12.352 27.0991 14.7291 27.1426C12.8697 28.5999 10.5275 29.4686 7.98162 29.4686C7.5435 29.4686 7.11076 29.4428 6.68555 29.3923C9.09061 30.9346 11.9462 31.8334 15.014 31.8334C25.0079 31.8334 30.4723 23.5549 30.4723 16.3752C30.4723 16.1397 30.4674 15.9048 30.4572 15.6715C31.5184 14.9071 32.4398 13.9497 33.1676 12.86Z" fill="white"/>
</svg>
